<?xml version="1.0" encoding="utf-8"?>
<!-- Generator: Adobe Illustrator 16.0.3, SVG Export Plug-In . SVG Version: 6.00 Build 0)  -->
<!DOCTYPE svg PUBLIC "-//W3C//DTD SVG 1.1//EN" "http://www.w3.org/Graphics/SVG/1.1/DTD/svg11.dtd">
<svg version="1.1" id="Capa_1" xmlns="http://www.w3.org/2000/svg" xmlns:xlink="http://www.w3.org/1999/xlink" x="0px" y="0px"
	 width="198.43px" height="99.21px" viewBox="0 0 198.43 99.21" enable-background="new 0 0 198.43 99.21" xml:space="preserve">
<g>
	<path fill-rule="evenodd" clip-rule="evenodd" fill="#5C94C1" d="M136.601,53.393c-2.459-0.285-4.923-0.523-7.4-0.423
		c-2.406,0.099-4.793,0.3-7.167,0.819c-1.813,0.396-3.613,0.809-5.337,1.475c-4.044,1.564-8.036,3.242-11.529,5.894
		c-0.703,0.533-1.456,1.001-2.152,1.544c-0.308,0.24-0.583,0.235-0.905,0.122c-0.564-0.197-1.159-0.291-1.741-0.263
		c-0.568,0.028-1.092-0.182-1.656-0.172c-0.264,0.004-0.626-0.189-0.178-0.614c1.805-1.713,3.528-3.511,5.367-5.186
		c3.557-3.24,7.299-6.259,11.384-8.813c2.953-1.845,6.023-3.466,9.301-4.691c2.187-0.818,4.389-1.584,6.658-2.081
		c1.565-0.342,3.158-0.607,4.764-0.796c2.56-0.303,5.124-0.494,7.688-0.368c1.831,0.09,3.664,0.285,5.49,0.525
		c2.686,0.354,5.316,0.93,7.936,1.587c2.496,0.626,4.935,1.441,7.332,2.36c2.474,0.947,4.915,1.996,7.248,3.251
		c3.493,1.879,6.909,3.895,10.067,6.315c0.613,0.47,1.244,0.916,1.868,1.371c0,0.096,0,0.19,0,0.285
		c-0.867,0.949-1.431,2.103-2.136,3.158c-2.268,3.398-4.508,6.816-6.715,10.254c-0.258,0.402-0.448,0.282-0.671,0.137
		c-3.401-2.207-6.918-4.213-10.495-6.118c-4.177-2.227-8.451-4.214-12.891-5.874c-2.788-1.044-5.617-1.948-8.498-2.64
		c-1.746-0.419-3.512-0.927-5.346-0.918C136.871,53.325,136.711,53.407,136.601,53.393z"/>
	<path fill-rule="evenodd" clip-rule="evenodd" fill="#5C94C1" d="M14.792,70.977c0.34-0.551,0.145-1.183,0.258-1.776
		c0.805-4.23,3.083-7.312,6.953-9.208c0.094-0.045,0.223-0.023,0.374-0.035c-1.166,1.629-1.12,3.396-0.893,5.229
		c0.229,1.837,0.764,3.571,1.461,5.27c0.565,1.377,1.284,2.678,2.062,3.944c1.298,2.116,2.927,3.962,4.768,5.603
		c2.176,1.939,4.697,3.336,7.402,4.423c1.909,0.766,3.892,1.263,5.889,1.696c1.156,0.251,2.355,0.308,3.537,0.438
		c2.288,0.254,4.588,0.358,6.886,0.274c2.136-0.079,4.289-0.13,6.396-0.447c3.305-0.495,6.537-1.33,9.617-2.697
		c2.409-1.068,4.561-2.548,6.707-4.034c0.37-0.257,0.724-0.308,1.043-0.229c1.311,0.326,2.584,0.764,3.797,1.384
		c0.403,0.207,0.363,0.282,0.093,0.525c-1.317,1.181-2.72,2.251-4.145,3.299c-2.692,1.978-5.558,3.66-8.562,5.107
		c-3.194,1.539-6.512,2.766-9.939,3.675c-1.914,0.509-3.856,0.876-5.818,1.181c-2.799,0.434-5.603,0.617-8.419,0.523
		c-2.06-0.069-4.106-0.302-6.15-0.663c-2.015-0.356-3.985-0.828-5.913-1.474c-3.195-1.071-6.19-2.501-8.795-4.721
		c-2.925-2.49-5.35-5.336-6.888-8.878c-0.713-1.642-1.223-3.34-1.474-5.129c-0.072-0.513,0.11-1.092-0.246-1.563
		C14.792,72.121,14.792,71.548,14.792,70.977z"/>
	<path fill-rule="evenodd" clip-rule="evenodd" fill="#211F23" d="M28.518,1.208c0.551,0.339,1.186,0.126,1.78,0.245
		c0.636,0.127,1.278,0.31,1.948,0.335c0.548,0.021,0.509,0.614,0.534,0.942c0.064,0.826,0.182,1.64,0.294,2.458
		c0.024,0.175,0.265,0.579-0.219,0.587c-0.383,0.006-0.911,0.188-1.042-0.367c-0.473-2.012-1.917-2.852-3.774-3.194
		c-1.426-0.263-2.871-0.318-4.268,0.112c-2.614,0.805-4.106,2.73-4.973,5.214c-0.481,1.379-0.663,2.821-0.561,4.269
		c0.187,2.658,0.96,5.082,3.096,6.875c1.227,1.031,2.625,1.656,4.246,1.677c1.225,0.015,2.453,0.087,3.648-0.337
		c1.393-0.497,2.303-1.402,2.738-2.826c0.084-0.275,0.059-0.77,0.657-0.708c0.479,0.049,0.817-0.034,0.64,0.697
		c-0.213,0.885-0.268,1.821-0.296,2.736c-0.017,0.563-0.492,0.522-0.722,0.57c-2.492,0.523-5.014,0.939-7.565,0.715
		c-3.921-0.344-7.167-1.883-8.983-5.614c-0.438-0.9-0.717-1.88-0.748-2.905c-0.003-0.111-0.043-0.174-0.155-0.186
		c0-0.905,0-1.811,0-2.716c0.326-0.743,0.365-1.563,0.655-2.325c0.821-2.157,2.253-3.731,4.26-4.839
		c1.288-0.711,2.633-1.189,4.109-1.269c0.08-0.004,0.112-0.072,0.125-0.145C25.467,1.208,26.993,1.208,28.518,1.208z"/>
	<path fill-rule="evenodd" clip-rule="evenodd" fill="#5C94C0" d="M164.374,86.832c-0.055,0.161-0.059,0.237-0.099,0.279
		c-2.896,3.085-5.993,5.904-9.95,7.603c-1.925,0.827-3.918,1.429-5.968,1.853c-1.985,0.413-3.984,0.701-6.011,0.891
		c-2.181,0.203-4.364,0.29-6.545,0.432c-2.678,0.176-5.35,0.099-8.022,0.083c-1.85-0.01-3.703-0.204-5.543-0.414
		c-3.316-0.38-6.603-0.989-9.82-1.866c-2.366-0.645-4.704-1.416-6.987-2.338c-3.162-1.277-6.237-2.721-9.243-4.343
		c-3.909-2.107-7.622-4.512-11.276-7.02c-2.767-1.899-5.482-3.866-8.164-5.886c-2.217-1.669-4.43-3.347-6.69-4.956
		c-2.995-2.133-5.988-4.266-9.082-6.259c-3.388-2.182-6.908-4.123-10.561-5.817c-2.144-0.995-4.346-1.854-6.615-2.54
		c-2.143-0.648-4.292-1.234-6.511-1.584c-1.445-0.229-2.876-0.486-4.345-0.587c-1.319-0.089-2.645-0.255-3.96-0.231
		c-3.102,0.058-5.953,1.022-8.497,2.802c-2.475,1.73-4.247,4.03-5.312,6.865c-0.037,0.101-0.107,0.188-0.162,0.282
		c-0.277-0.441-0.019-0.889,0.082-1.275c0.405-1.564,0.913-3.105,1.645-4.55c0.743-1.464,1.632-2.851,2.679-4.122
		c1.896-2.303,4.178-4.155,6.692-5.752c2.734-1.736,5.669-3.012,8.74-3.994c2.367-0.757,4.763-1.397,7.237-1.724
		c1.133-0.149,2.264-0.311,3.399-0.45c2.581-0.319,5.166-0.285,7.75-0.242c1.838,0.031,3.664,0.273,5.493,0.523
		c2.528,0.345,4.934,1.042,7.326,1.877c2.108,0.735,4.185,1.54,6.228,2.441c1.843,0.813,3.65,1.697,5.421,2.653
		c2.996,1.617,5.862,3.445,8.663,5.376c3.274,2.256,6.44,4.66,9.624,7.041c3.259,2.436,6.58,4.787,10.003,6.987
		c2.041,1.313,4.15,2.518,6.28,3.686c2.563,1.406,5.256,2.545,7.854,3.874c2.147,1.101,4.254,2.287,6.443,3.308
		c2.661,1.24,5.365,2.381,8.121,3.403c3.356,1.248,6.78,2.273,10.263,3.068c1.49,0.34,3.028,0.557,4.541,0.823
		c3.275,0.576,6.562,0.564,9.854,0.509c1.362-0.022,2.728-0.208,4.063-0.54C163.702,86.93,164.022,87.044,164.374,86.832z"/>
	<path fill-rule="evenodd" clip-rule="evenodd" fill="#EAC054" d="M136.601,53.393c0.112,0.014,0.273-0.07,0.286,0.142
		c-0.025,2.484,0.135,4.965,0.188,7.446c0.03,1.385-0.047,2.785,0.123,4.158c0.16,1.297-0.011,2.595,0.144,3.872
		c0.107,0.891,0.083,1.772,0.125,2.764c2.325-5.382,4.612-10.675,6.897-15.967c0.047,0.015,0.094,0.03,0.141,0.044
		c-1.32,5.499-2.643,10.998-3.964,16.496c0.041,0.019,0.083,0.038,0.123,0.058c0.822-0.868,1.714-1.683,2.447-2.62
		c0.577-0.739,1.263-1.365,1.869-2.07c1.38-1.606,2.896-3.092,4.321-4.661c1.168-1.284,2.295-2.604,3.664-3.737
		c-2.972,5.583-5.943,11.165-8.913,16.748c5.774-3.672,11.397-7.546,17.099-11.335c-4.995,4.718-9.665,9.756-14.641,14.514
		c6.698-1.985,13.295-4.283,19.971-6.347c-5.813,3.286-11.623,6.574-17.609,9.96c2.223-0.034,4.235-0.24,6.251-0.327
		c1.532-0.064,3.068-0.173,4.604-0.264c1.605-0.097,3.215-0.174,4.813-0.318c0.889-0.08,1.765-0.017,2.662-0.01
		c-1.375,0.349-2.749,0.694-4.121,1.05c-1.726,0.446-3.448,0.9-5.171,1.352c-2.113,0.552-4.21,1.183-6.345,1.629
		c-1.188,0.248-2.437-0.042-3.649-0.137c-1.169-0.093-2.333-0.33-3.485-0.566c-1.876-0.382-3.706-0.922-5.517-1.551
		c-2.653-0.92-5.185-2.13-7.789-3.161c-3.463-1.369-6.677-3.185-9.646-5.449c-2.241-1.709-4.412-3.492-6.514-5.369
		c-1.753-1.565-3.461-3.171-5.032-4.948c5.234,3.074,10.468,6.147,15.869,9.321c-2.905-5.659-5.724-11.151-8.544-16.645
		c0.042-0.027,0.081-0.055,0.123-0.082c3.989,4.824,7.978,9.649,12.024,14.545c-0.729-5.771-1.445-11.417-2.16-17.063
		c0.046-0.009,0.092-0.019,0.137-0.028c1.899,5.902,3.799,11.805,5.745,17.855c0.175-0.878,0.337-1.615,0.469-2.357
		c0.264-1.49,0.508-2.985,0.771-4.478c0.214-1.222,0.435-2.442,0.662-3.663c0.212-1.128,0.447-2.253,0.65-3.382
		c0.225-1.246,0.439-2.494,0.63-3.746C136.393,54.504,136.684,53.98,136.601,53.393z"/>
	<path fill-rule="evenodd" clip-rule="evenodd" fill="#211F22" d="M62.261,11.861c-0.074,2.78-1.027,5.224-3.137,7.114
		c-1.547,1.385-3.38,2.218-5.457,2.564c-0.703,0.118-1.434,0.215-2.104,0.211c-2.923-0.018-5.694-0.59-7.976-2.662
		c-1.424-1.294-2.45-2.781-2.934-4.656c-0.405-1.572-0.447-3.119-0.152-4.725c0.384-2.09,1.326-3.834,2.869-5.255
		c1.468-1.354,3.21-2.16,5.178-2.544c1.175-0.229,2.349-0.327,3.531-0.261c2.903,0.16,5.524,1.057,7.508,3.278
		c1.416,1.585,2.321,3.443,2.549,5.605C62.183,10.964,62.244,11.396,62.261,11.861z"/>
	<path fill-rule="evenodd" clip-rule="evenodd" fill="#211F23" d="M87.563,16.087c0-3.644-0.005-7.237,0.005-10.831
		c0.001-0.419-0.114-0.805-0.233-1.192c-0.3-0.979-1.132-0.991-1.923-0.983c-0.451,0.005-0.628-0.095-0.578-0.571
		c0.026-0.252,0.088-0.307,0.331-0.306c2.12,0.01,4.24,0.017,6.359-0.005c0.406-0.004,0.319,0.22,0.329,0.447
		c0.011,0.248,0.035,0.46-0.345,0.43c-0.387-0.03-0.777,0.07-1.159,0.104c-0.677,0.06-0.914,0.535-1.034,1
		c-0.092,0.354-0.178,0.753-0.178,1.14c-0.003,5.424-0.003,10.85-0.003,16.44c-4.933-5.096-9.79-10.114-14.725-15.21
		c0,3.731-0.012,7.316,0.011,10.9c0.004,0.631,0.093,1.267,0.265,1.887c0.167,0.6,0.561,0.868,1.146,0.882
		c0.417,0.009,0.8,0.229,1.229,0.151c0.287-0.052,0.185,0.191,0.209,0.333c0.042,0.238-0.031,0.43-0.258,0.518
		c-0.102,0.04-0.232,0.003-0.35,0.003c-2.025,0-4.049-0.001-6.074,0c-0.259,0.001-0.528,0.069-0.478-0.371
		c0.033-0.294-0.025-0.54,0.429-0.504c0.352,0.027,0.725-0.055,1.072-0.149c0.694-0.189,1.077-0.763,1.078-1.663
		c0.01-4.454,0.001-8.909,0.012-13.363c0-0.241-0.073-0.395-0.233-0.552c-0.772-0.756-1.504-1.58-2.72-1.556
		c-0.295,0.006-0.18-0.21-0.197-0.35c-0.031-0.259,0.035-0.506,0.332-0.51c1.356-0.021,2.713-0.036,4.067,0.003
		c0.202,0.006,0.418,0.295,0.586,0.489c1.944,2.246,4.211,4.178,6.208,6.368c2.049,2.247,4.273,4.314,6.38,6.501
		C87.264,15.714,87.386,15.876,87.563,16.087z"/>
	<path fill-rule="evenodd" clip-rule="evenodd" fill="#211F23" d="M157.121,5.745c-0.769,0.186-1.275,0.066-1.417-0.902
		c-0.146-1.005-0.934-1.406-1.899-1.493c-2.052-0.185-4.106-0.124-6.16-0.147c-0.323-0.004-0.326,0.134-0.326,0.377
		c0.007,2.287,0.01,4.575-0.001,6.862c-0.002,0.28,0.068,0.355,0.351,0.353c1.644-0.014,3.289,0.028,4.932-0.021
		c1.162-0.035,1.614-0.522,1.727-1.668c0.063-0.64,0.537-0.22,0.808-0.304c0.21-0.065,0.502-0.128,0.492,0.331
		c-0.031,1.381-0.028,2.764-0.002,4.145c0.009,0.562-0.332,0.524-0.697,0.513c-0.308-0.01-0.594,0.114-0.625-0.451
		c-0.056-0.959-0.412-1.507-1.604-1.596c-1.63-0.122-3.253-0.019-4.876-0.105c-0.389-0.021-0.514,0.067-0.51,0.486
		c0.025,2.025,0.009,4.05,0.013,6.075c0.001,0.672,0.692,1.426,1.47,1.602c1.85,0.419,3.732,0.314,5.599,0.255
		c0.919-0.029,1.527-0.708,1.797-1.618c0.07-0.233,0.203-0.454,0.237-0.69c0.105-0.729,0.648-0.331,0.979-0.362
		c0.413-0.039,0.197,0.352,0.199,0.529c0.011,1.063-0.319,2.097-0.282,3.172c0.01,0.282-0.252,0.479-0.632,0.431
		c-1.903-0.237-3.827-0.03-5.728-0.173c-3.01-0.226-6.016-0.049-9.023-0.107c-0.417-0.008-0.484-0.127-0.494-0.511
		c-0.012-0.442,0.253-0.324,0.491-0.364c0.685-0.115,1.448-0.033,1.913-0.735c0.263-0.396,0.329-0.834,0.329-1.296
		c-0.002-4.336-0.021-8.673,0.008-13.009c0.013-1.969-0.646-2.179-2.238-2.239c-0.4-0.015-0.511-0.105-0.503-0.504
		c0.009-0.335,0.122-0.374,0.413-0.374c4.788,0.009,9.577,0.011,14.367-0.001c0.464-0.001,0.514,0.21,0.546,0.602
		C156.854,3.781,156.998,4.752,157.121,5.745z"/>
	<path fill-rule="evenodd" clip-rule="evenodd" fill="#211F23" d="M175.059,11.217c0,2.429-0.001,4.858,0,7.287
		c0,1.076,0.604,1.698,1.688,1.716c0.416,0.007,0.799,0.226,1.228,0.152c0.35-0.059,0.236,0.236,0.219,0.382
		c-0.02,0.165,0.184,0.467-0.213,0.469c-0.047,0-0.095,0.001-0.142,0.001c-2.906-0.001-5.812-0.005-8.717,0.005
		c-0.366,0-0.479-0.131-0.51-0.493c-0.035-0.437,0.216-0.355,0.477-0.376c0.5-0.04,1.011-0.065,1.493-0.188
		c0.908-0.23,1.321-0.845,1.325-2.05c0.017-4.833,0.007-9.668,0.006-14.502c0-0.189,0.098-0.423-0.279-0.417
		c-1.541,0.022-3.079-0.005-4.615,0.239c-1.5,0.238-2.094,1.256-2.385,2.538c-0.192,0.841-0.761,0.292-1.112,0.337
		c-0.319,0.041-0.136-0.333-0.099-0.569c0.14-0.879,0.272-1.763,0.333-2.649c0.083-1.209,0.401-1.461,1.577-1.093
		c0.115,0.036,0.219,0.056,0.331,0.062c4.384,0.227,8.773,0.173,13.158,0.111c1.265-0.018,2.547-0.112,3.815-0.245
		c0.138-0.014,0.421-0.158,0.425,0.18c0.017,1.244,0.369,2.448,0.418,3.685c0.009,0.184,0.233,0.609-0.261,0.545
		c-0.368-0.048-0.861,0.311-1.036-0.458c-0.424-1.873-1.174-2.353-3.138-2.551c-1.103-0.11-2.203-0.066-3.3-0.141
		c-0.63-0.042-0.708,0.178-0.701,0.736C175.078,6.358,175.059,8.788,175.059,11.217z"/>
	<path fill-rule="evenodd" clip-rule="evenodd" fill="#211F23" d="M126.64,1.604c2.685,0.068,4.73,0.3,6.763,0.717
		c0.433,0.088,0.419,0.397,0.443,0.547c0.153,0.926,0.24,1.865,0.311,2.802c0.014,0.184,0.226,0.578-0.277,0.542
		c-0.363-0.026-0.865,0.159-0.978-0.359c-0.441-2.046-2.002-2.823-3.771-3.192c-1.882-0.392-3.782-0.326-5.518,0.691
		c-1.884,1.106-3.106,2.715-3.754,4.814c-0.376,1.218-0.57,2.455-0.538,3.703c0.064,2.572,0.731,4.98,2.593,6.858
		c1.139,1.149,2.55,1.86,4.216,2.094c1.259,0.177,2.471,0.112,3.688-0.171c1.737-0.405,2.894-1.475,3.339-3.189
		c0.219-0.844,0.776-0.33,1.104-0.338c0.395-0.01,0.107,0.365,0.079,0.616c-0.089,0.771-0.316,1.558-0.267,2.302
		c0.064,0.955-0.581,0.943-1.086,1.026c-1.579,0.262-3.153,0.523-4.765,0.625c-2.38,0.15-4.688-0.094-6.819-1.08
		c-2.128-0.984-3.788-2.546-4.691-4.832c-0.462-1.169-0.649-2.337-0.718-3.577c-0.121-2.242,0.296-4.312,1.569-6.187
		c1.429-2.102,3.438-3.339,5.865-3.943C124.68,1.761,125.952,1.548,126.64,1.604z"/>
	<path fill-rule="evenodd" clip-rule="evenodd" fill="#211F23" d="M104.039,2.209c1.286,0,2.573,0.019,3.858-0.012
		c0.389-0.009,0.395,0.148,0.406,0.451c0.016,0.344-0.077,0.457-0.428,0.427c-0.364-0.031-0.722,0.032-1.089,0.117
		c-0.812,0.187-1.188,0.553-1.195,1.411c-0.033,4.691-0.021,9.383-0.011,14.075c0.003,1.019,0.476,1.488,1.49,1.539
		c0.346,0.017,0.651,0.226,1.015,0.155c0.286-0.056,0.187,0.189,0.207,0.333c0.036,0.264-0.036,0.518-0.324,0.52
		c-2.644,0.015-5.285,0.016-7.928-0.001c-0.344-0.002-0.318-0.32-0.334-0.588c-0.017-0.309,0.165-0.291,0.357-0.267
		c0.419,0.05,0.805-0.14,1.226-0.159c0.688-0.031,1.136-0.692,1.137-1.529c0.009-4.644,0.04-9.289-0.02-13.931
		c-0.016-1.231-0.368-1.504-1.988-1.693c-0.23-0.027-0.608,0.255-0.693-0.193c-0.072-0.377-0.084-0.7,0.527-0.671
		C101.514,2.251,102.777,2.209,104.039,2.209z"/>
	<path fill-rule="evenodd" clip-rule="evenodd" fill="#FFFFFF" d="M58.676,11.567c0.089,2.488-0.455,4.624-1.854,6.487
		c-1.119,1.492-2.567,2.42-4.46,2.762c-4.133,0.747-7.332-2.475-8.143-5.835c-0.349-1.444-0.491-2.883-0.386-4.332
		c0.224-3.1,1.419-5.733,4.181-7.38c1.36-0.81,2.886-0.912,4.484-0.661c1.392,0.217,2.537,0.832,3.499,1.744
		c1.068,1.013,1.834,2.305,2.238,3.717C58.573,9.251,58.848,10.482,58.676,11.567z"/>
</g>
</svg>
